<svg width="100" height="30" viewBox="0 0 100 30" fill="none" xmlns="http://www.w3.org/2000/svg">
<g clip-path="url(#clip0)">
<path d="M99.3367 26.1398C99.3367 27.7081 98.0663 28.9784 96.4951 28.9784H3.50485C1.93437 28.9784 0.659668 27.7081 0.659668 26.1398V3.50315C0.659668 1.93563 1.93443 0.660873 3.50485 0.660873H96.4943C98.0663 0.660873 99.3359 1.93563 99.3359 3.50315L99.3367 26.1398Z" fill="white"/>
<path d="M96.4951 29.6387H3.50486C1.5727 29.6387 0 28.0697 0 26.1398V3.50388C0 1.57247 1.5727 0.00125122 3.50486 0.00125122H96.4943C98.4243 0.00125122 99.9992 1.57247 99.9992 3.50388V26.1398C100.001 28.0697 98.4257 29.6387 96.4951 29.6387V29.6387Z" fill="#A6A6A6"/>
<path d="M99.3367 26.1398C99.3367 27.7081 98.0663 28.9784 96.4951 28.9784H3.50485C1.93437 28.9784 0.659668 27.7081 0.659668 26.1398V3.50315C0.659668 1.93563 1.93443 0.660873 3.50485 0.660873H96.4943C98.0663 0.660873 99.3359 1.93563 99.3359 3.50315L99.3367 26.1398Z" fill="black"/>
<path d="M22.3291 14.664C22.3076 12.2753 24.285 11.1132 24.3754 11.0591C23.2556 9.42634 21.5199 9.20326 20.9099 9.18547C19.4521 9.03206 18.038 10.0578 17.2954 10.0578C16.5379 10.0578 15.3943 9.2003 14.1618 9.2255C12.5758 9.24995 11.0921 10.1682 10.2782 11.5942C8.59886 14.5017 9.85132 18.7743 11.4604 21.1245C12.2652 22.2762 13.2058 23.5606 14.4368 23.5154C15.6411 23.4665 16.091 22.7483 17.5444 22.7483C18.9844 22.7483 19.4069 23.5154 20.6623 23.4865C21.9549 23.4665 22.7686 22.3303 23.5454 21.169C24.4756 19.8505 24.849 18.5505 24.8639 18.4838C24.8342 18.4734 22.3543 17.5263 22.3291 14.664V14.664ZM19.9575 7.63945C20.6052 6.82939 21.0484 5.72731 20.9254 4.60893C19.9878 4.65044 18.8154 5.25743 18.1401 6.04971C17.5428 6.74786 17.0092 7.89218 17.147 8.96832C18.2002 9.04688 19.2816 8.43692 19.9575 7.63945V7.63945Z" fill="white"/>
<path d="M96.4952 0.00125122H46.6868L66.1959 29.6387H96.4952C98.4251 29.6387 100 28.0697 100 26.1376V3.50388C100.001 1.57247 98.4258 0.00125122 96.4952 0.00125122Z" fill="url(#paint0_linear)"/>
<path d="M39.7735 23.3501H38.0904L37.1684 20.453H33.9636L33.0854 23.3501H31.4468L34.6226 13.4871H36.5836L39.7735 23.3501ZM36.8905 19.2376L36.0567 16.6621C35.9685 16.399 35.8025 15.7794 35.5594 14.8041H35.5298C35.432 15.2235 35.2756 15.8431 35.0614 16.6621L34.2417 19.2376H36.8905ZM47.9246 19.7067C47.9246 20.9162 47.5963 21.8723 46.9388 22.5742C46.3504 23.1989 45.6189 23.511 44.7466 23.511C43.8046 23.511 43.1272 23.1752 42.7158 22.5023V26.234H41.1357V18.5757C41.1357 17.816 41.1158 17.0371 41.0772 16.2382H42.4669L42.5551 17.3654H42.5846C43.1116 16.5161 43.9113 16.0914 44.9845 16.0914C45.8234 16.0914 46.5238 16.4226 47.0841 17.086C47.6437 17.7508 47.9246 18.6239 47.9246 19.7067V19.7067ZM46.3148 19.7645C46.3148 19.0723 46.1592 18.5016 45.8464 18.0517C45.5047 17.5841 45.046 17.3499 44.4708 17.3499C44.081 17.3499 43.7267 17.4803 43.4103 17.7375C43.0931 17.9969 42.8855 18.3356 42.7885 18.7551C42.7396 18.9507 42.7151 19.1101 42.7151 19.2361V20.4226C42.7151 20.9392 42.8738 21.3758 43.191 21.733C43.5082 22.0888 43.9202 22.2673 44.4272 22.2673C45.0224 22.2673 45.4856 22.0369 45.8168 21.5796C46.1488 21.1208 46.3148 20.516 46.3148 19.7645V19.7645ZM56.1045 19.7067C56.1045 20.9162 55.7762 21.8723 55.1188 22.5742C54.5296 23.1989 53.7988 23.511 52.9258 23.511C51.9838 23.511 51.3064 23.1752 50.8951 22.5023V26.234H49.3149V18.5757C49.3149 17.816 49.2949 17.0371 49.2564 16.2382H50.646L50.7342 17.3654H50.7639C51.2901 16.5161 52.0898 16.0914 53.1636 16.0914C54.0019 16.0914 54.7022 16.4226 55.2641 17.086C55.823 17.7508 56.1045 18.6239 56.1045 19.7067ZM54.494 19.7645C54.494 19.0723 54.3377 18.5016 54.0249 18.0517C53.6832 17.5841 53.2259 17.3499 52.6508 17.3499C52.261 17.3499 51.9067 17.4803 51.5888 17.7375C51.2716 17.9969 51.0648 18.3356 50.9677 18.7551C50.9195 18.9507 50.8936 19.1101 50.8936 19.2361V20.4226C50.8936 20.9392 51.0529 21.3758 51.3686 21.733C51.6859 22.088 52.0979 22.2673 52.6064 22.2673C53.2022 22.2673 53.6654 22.0369 53.996 21.5796C54.328 21.1208 54.494 20.516 54.494 19.7645V19.7645ZM65.2502 20.5835C65.2502 21.4232 64.9567 22.1058 64.3735 22.6327C63.7316 23.2078 62.8356 23.4961 61.6868 23.4961C60.6255 23.4961 59.7747 23.2916 59.1328 22.8817L59.4982 21.5647C60.1912 21.9753 60.9523 22.1799 61.7809 22.1799C62.3768 22.1799 62.84 22.045 63.1706 21.7774C63.5018 21.5091 63.6694 21.1504 63.6694 20.7028C63.6694 20.3019 63.5308 19.9661 63.2588 19.6927C62.9853 19.4199 62.5332 19.1657 61.8981 18.9323C60.1712 18.2882 59.307 17.3462 59.307 16.107C59.307 15.2977 59.6124 14.6351 60.2216 14.1171C60.8309 13.5998 61.6387 13.3412 62.6437 13.3412C63.5412 13.3412 64.289 13.4976 64.8827 13.8096L64.4862 15.0976C63.9273 14.7952 63.2966 14.644 62.591 14.644C62.0337 14.644 61.5964 14.7811 61.2836 15.0539C61.0205 15.2977 60.8871 15.595 60.8871 15.9477C60.8871 16.3369 61.0391 16.66 61.3414 16.9135C61.6038 17.1469 62.0826 17.4011 62.7748 17.6739C63.6242 18.0163 64.2481 18.415 64.6477 18.873C65.0501 19.3309 65.2502 19.9024 65.2502 20.5835V20.5835ZM70.4879 17.424H68.7462V20.877C68.7462 21.7552 69.0531 22.1932 69.6682 22.1932C69.9505 22.1932 70.1848 22.1694 70.3701 22.1198L70.4137 23.3197C70.1025 23.4362 69.6926 23.4947 69.1849 23.4947C68.5609 23.4947 68.0732 23.3042 67.7212 22.9232C67.3706 22.5423 67.1943 21.9042 67.1943 21.0059V17.421H66.1566V16.2352H67.1943V14.933L68.7462 14.4646V16.2352H70.4879V17.424V17.424ZM78.3306 19.7356C78.3306 20.8287 78.0179 21.7262 77.3938 22.4282C76.7409 23.1508 75.8723 23.511 74.7894 23.511C73.7444 23.511 72.9136 23.1648 72.294 22.4734C71.6744 21.7803 71.3646 20.9073 71.3646 19.8542C71.3646 18.752 71.6848 17.8494 72.3229 17.1475C72.9625 16.4449 73.8238 16.0937 74.9065 16.0937C75.9501 16.0937 76.7884 16.4405 77.4227 17.1327C78.029 17.8042 78.3306 18.6713 78.3306 19.7356V19.7356ZM76.6927 19.7719C76.6927 19.1204 76.5519 18.5616 76.2695 18.0939C75.9382 17.5292 75.4639 17.2469 74.8495 17.2469C74.2165 17.2469 73.7312 17.5292 73.4005 18.0939C73.1174 18.5616 72.9766 19.13 72.9766 19.8015C72.9766 20.4538 73.1174 21.014 73.4005 21.4802C73.7422 22.045 74.2188 22.3274 74.8361 22.3274C75.4402 22.3274 75.9138 22.0391 76.2562 21.4662C76.5468 20.9874 76.6927 20.4249 76.6927 19.7719V19.7719ZM83.469 17.6278C83.3126 17.5988 83.1451 17.584 82.971 17.584C82.4151 17.584 81.9852 17.7931 81.6829 18.214C81.4206 18.5845 81.2886 19.0529 81.2886 19.6184V23.3501H79.7085V18.4779C79.7085 17.6589 79.6929 16.9119 79.6625 16.2389H81.0389L81.0967 17.5996H81.1404C81.3079 17.132 81.5703 16.7547 81.9305 16.4723C82.2825 16.2182 82.6626 16.0914 83.0726 16.0914C83.2185 16.0914 83.3505 16.1017 83.4676 16.1203L83.469 17.6278V17.6278ZM90.5358 19.4577C90.5358 19.7408 90.5172 19.9794 90.4779 20.1744H85.7376C85.7554 20.877 85.9852 21.415 86.4254 21.7856C86.8249 22.1162 87.3414 22.2822 87.9758 22.2822C88.6777 22.2822 89.318 22.171 89.8939 21.9464L90.1414 23.0426C89.4685 23.3361 88.674 23.4821 87.7572 23.4821C86.6544 23.4821 85.7887 23.1574 85.1587 22.5097C84.5303 21.8612 84.2153 20.9896 84.2153 19.8979C84.2153 18.8262 84.5081 17.9331 85.0943 17.2209C85.708 16.4605 86.5373 16.0802 87.5809 16.0802C88.6059 16.0802 89.3818 16.4604 89.9087 17.2209C90.326 17.8235 90.5358 18.5705 90.5358 19.4577V19.4577ZM89.029 19.0478C89.0401 18.5787 88.9363 18.1748 88.7222 17.8331C88.4486 17.3929 88.0277 17.1735 87.4637 17.1735C86.9471 17.1735 86.5262 17.3877 86.206 17.8175C85.9429 18.1592 85.7865 18.5698 85.7384 19.0463L89.029 19.0478Z" fill="white"/>
<path d="M36.1283 9.95701H35.3004L34.8475 8.53328H33.2726L32.8405 9.95701H32.0349L33.5958 5.10922H34.5592L36.1283 9.95701ZM34.7112 7.93593L34.3013 6.67006C34.2583 6.54036 34.179 6.23871 34.0567 5.75697H34.0419C33.9915 5.96523 33.9196 6.26762 33.8114 6.67006L33.409 7.93593H34.7112ZM40.0311 6.4618L38.7074 9.95701H37.9521L36.6715 6.4618H37.506L38.1034 8.3102C38.2042 8.61926 38.2901 8.91423 38.3546 9.19438H38.3761C38.434 8.94314 38.5199 8.64816 38.6274 8.3102L39.2173 6.4618H40.0311V6.4618ZM42.8489 9.95701L42.7911 9.55451H42.7695C42.5324 9.87839 42.187 10.0363 41.7483 10.0363C41.1227 10.0363 40.6765 9.5975 40.6765 9.00755C40.6765 8.14487 41.4244 7.6987 42.7191 7.6987V7.63422C42.7191 7.17397 42.4746 6.94348 41.9928 6.94348C41.6474 6.94348 41.3451 7.03019 41.0797 7.20288L40.9218 6.69223C41.2457 6.49064 41.6482 6.38985 42.1232 6.38985C43.0363 6.38985 43.4973 6.87159 43.4973 7.83581V9.12317C43.4973 9.47595 43.5121 9.74943 43.5477 9.95769L42.8489 9.95701V9.95701ZM42.7407 8.21608C41.8773 8.21608 41.4459 8.42508 41.4459 8.9209C41.4459 9.28776 41.669 9.46712 41.9781 9.46712C42.3738 9.46712 42.7407 9.16548 42.7407 8.75563V8.21608ZM45.2272 5.88593C44.9686 5.88593 44.767 5.68434 44.767 5.41827C44.767 5.1522 44.9753 4.95802 45.242 4.95802C45.5081 4.95802 45.7238 5.1522 45.7164 5.41827C45.7164 5.69916 45.5156 5.88593 45.2272 5.88593ZM45.6304 9.95701H44.8537V6.4618H45.6304V9.95701ZM47.7871 9.95701H47.0104V4.85797H47.7871V9.95701ZM51.0881 9.95701L51.0303 9.55451H51.0088C50.7717 9.87839 50.4263 10.0363 49.9876 10.0363C49.362 10.0363 48.9159 9.5975 48.9159 9.00755C48.9159 8.14487 49.6636 7.6987 50.9584 7.6987V7.63422C50.9584 7.17397 50.7138 6.94348 50.2321 6.94348C49.8867 6.94348 49.5843 7.03019 49.319 7.20288L49.1604 6.69149C49.4843 6.4899 49.8868 6.3891 50.3618 6.3891C51.2749 6.3891 51.7358 6.87085 51.7358 7.83507V9.12243C51.7358 9.47521 51.7515 9.74869 51.7856 9.95695H51.0881V9.95701ZM50.9799 8.21608C50.1165 8.21608 49.6852 8.42508 49.6852 8.9209C49.6852 9.28776 49.9082 9.46712 50.2172 9.46712C50.613 9.46712 50.9799 9.16548 50.9799 8.75563V8.21608V8.21608ZM54.8828 10.0363C54.387 10.0363 54.0208 9.82732 53.7837 9.41746H53.7681L53.7236 9.95701H53.0618C53.0833 9.67686 53.0907 9.35966 53.0907 9.01503V4.85797H53.8682V6.97318H53.883C54.1134 6.58483 54.4863 6.39065 54.9977 6.39065C55.8396 6.39065 56.4295 7.1103 56.4295 8.15975C56.4295 9.24478 55.7744 10.0363 54.8828 10.0363V10.0363ZM54.7249 7.00061C54.278 7.00061 53.869 7.38896 53.869 7.92851V8.53995C53.869 9.0217 54.2365 9.41746 54.7116 9.41746C55.2934 9.41746 55.6396 8.94313 55.6396 8.18791C55.6387 7.48309 55.2786 7.00061 54.7249 7.00061V7.00061ZM58.3543 9.95701H57.5784V4.85797H58.3543V9.95701ZM62.5826 8.39617H60.2509C60.2665 9.05801 60.7037 9.43155 61.3515 9.43155C61.6968 9.43155 62.0133 9.37374 62.2934 9.26627L62.4143 9.80582C62.0837 9.9496 61.6953 10.0215 61.2425 10.0215C60.1486 10.0215 59.5016 9.33075 59.5016 8.2598C59.5016 7.18812 60.1642 6.3825 61.1551 6.3825C62.0467 6.3825 62.6084 7.04433 62.6084 8.04413C62.6114 8.1805 62.6047 8.30279 62.5826 8.39617V8.39617ZM61.8703 7.84254C61.8703 7.30299 61.5967 6.92205 61.1002 6.92205C60.654 6.92205 60.3027 7.3104 60.2509 7.84254H61.8703V7.84254ZM67.2902 10.0363C66.2689 10.0363 65.6071 9.27368 65.6071 8.23831C65.6071 7.15921 66.283 6.38991 67.3488 6.38991C68.3544 6.38991 69.0319 7.11622 69.0319 8.18124C69.032 9.27368 68.3337 10.0363 67.2902 10.0363ZM67.3199 6.95762C66.7588 6.95762 66.3994 7.48235 66.3994 8.21608C66.3994 8.93572 66.7663 9.46045 67.3125 9.46045C67.8587 9.46045 68.2248 8.89941 68.2248 8.20125C68.2255 7.48976 67.8661 6.95762 67.3199 6.95762V6.95762ZM73.2075 9.95701H72.4316V7.95001C72.4316 7.3319 72.1943 7.0221 71.7267 7.0221C71.2665 7.0221 70.9493 7.41787 70.9493 7.87812V9.95701H70.1733V7.46085C70.1733 7.1518 70.1652 6.82051 70.1444 6.46106H70.8277L70.8641 7.00061H70.8855C71.093 6.62707 71.5185 6.38917 71.9928 6.38917C72.7258 6.38917 73.2075 6.95021 73.2075 7.86329V9.95701H73.2075V9.95701ZM78.2895 7.04433H77.4349V8.74155C77.4349 9.17363 77.5855 9.3893 77.887 9.3893C78.0242 9.3893 78.1398 9.37448 78.2324 9.35299L78.254 9.94293C78.1027 10.0008 77.9004 10.0296 77.6506 10.0296C77.0384 10.0296 76.6731 9.69169 76.6731 8.80677V7.04433H76.1631V6.4618H76.6731V5.82145L77.4349 5.59096V6.46106H78.2895V7.04433ZM82.4029 9.95701H81.6253V7.96483C81.6253 7.33931 81.3882 7.02284 80.9206 7.02284C80.5181 7.02284 80.1446 7.29632 80.1446 7.84995V9.95701H79.3672V4.85797H80.1446V6.95762H80.1594C80.404 6.57667 80.7568 6.38917 81.2096 6.38917C81.95 6.38917 82.4029 6.96429 82.4029 7.87812V9.95701V9.95701ZM86.3717 8.39617H84.0408C84.0556 9.05801 84.4929 9.43155 85.1407 9.43155C85.4868 9.43155 85.8025 9.37374 86.0827 9.26627L86.2042 9.80582C85.8736 9.9496 85.4846 10.0215 85.0318 10.0215C83.9378 10.0215 83.2908 9.33075 83.2908 8.2598C83.2908 7.18812 83.9535 6.3825 84.9443 6.3825C85.836 6.3825 86.3977 7.04433 86.3977 8.04413C86.4005 8.1805 86.3931 8.30279 86.3717 8.39617V8.39617ZM85.6594 7.84254C85.6594 7.30299 85.3866 6.92205 84.8901 6.92205C84.4432 6.92205 84.0919 7.3104 84.0407 7.84254H85.6594V7.84254Z" fill="white"/>
</g>
<defs>
<linearGradient id="paint0_linear" x1="73.3439" y1="29.7193" x2="73.3439" y2="3.00411" gradientUnits="userSpaceOnUse">
<stop stop-color="#1A1A1A" stop-opacity="0.1"/>
<stop offset="0.123" stop-color="#212121" stop-opacity="0.151"/>
<stop offset="0.308" stop-color="#353535" stop-opacity="0.227"/>
<stop offset="0.532" stop-color="#575757" stop-opacity="0.318"/>
<stop offset="0.783" stop-color="#858585" stop-opacity="0.421"/>
<stop offset="1" stop-color="#B3B3B3" stop-opacity="0.51"/>
</linearGradient>
<clipPath id="clip0">
<rect width="100" height="29.64" fill="white"/>
</clipPath>
</defs>
</svg>
