<svg width="35" height="35" viewBox="0 0 35 35" fill="none" xmlns="http://www.w3.org/2000/svg">
<path d="M17.4978 0.364288C7.83563 0.364288 0 8.23054 0 17.9343C0 25.6955 5.01375 32.2799 11.97 34.6052C12.845 34.7671 13.1644 34.2246 13.1644 33.7587C13.1644 33.3409 13.1491 32.2362 13.1403 30.7705C8.27313 31.8315 7.245 28.4146 7.245 28.4146C6.45094 26.3846 5.3025 25.8443 5.3025 25.8443C3.71219 24.7549 5.42062 24.7768 5.42062 24.7768C7.17719 24.9015 8.10031 26.588 8.10031 26.588C9.66219 29.2721 12.1975 28.4977 13.195 28.0471C13.3525 26.9118 13.8053 26.1374 14.3062 25.6977C10.4212 25.2537 6.335 23.7465 6.335 17.0155C6.335 15.0971 7.0175 13.5287 8.1375 12.2993C7.95594 11.8552 7.35656 10.068 8.30813 7.65085C8.30813 7.65085 9.77813 7.17835 13.1206 9.45116C14.5163 9.06179 16.0125 8.8671 17.5022 8.86054C18.9875 8.86929 20.4859 9.06179 21.8837 9.45335C25.2241 7.18054 26.6919 7.65304 26.6919 7.65304C27.6456 10.0724 27.0462 11.8574 26.8669 12.3015C27.9891 13.5309 28.665 15.0993 28.665 17.0177C28.665 23.7662 24.5744 25.2515 20.6762 25.6868C21.3041 26.2293 21.8641 27.3012 21.8641 28.9396C21.8641 31.289 21.8422 33.1834 21.8422 33.7587C21.8422 34.229 22.1572 34.7758 23.0453 34.603C29.9906 32.2755 35 25.6933 35 17.9343C35 8.23054 27.1644 0.364288 17.4978 0.364288Z" fill="#5C6BC0"/>
</svg>
