<svg width="35" height="35" viewBox="0 0 35 35" fill="none" xmlns="http://www.w3.org/2000/svg">
<g clip-path="url(#clip0)">
<path d="M17.5008 34.9997C27.1657 34.9997 35.0007 27.1647 35.0007 17.4998C35.0007 7.83495 27.1657 0 17.5008 0C7.83595 0 0.00100708 7.83495 0.00100708 17.4998C0.00100708 27.1647 7.83595 34.9997 17.5008 34.9997Z" fill="#55ACEE"/>
<path d="M28.2194 12.5766C27.4695 12.9092 26.6628 13.1341 25.8168 13.2345C26.6806 12.717 27.3435 11.8981 27.6564 10.9208C26.8481 11.4003 25.9525 11.7481 25.0001 11.9356C24.2371 11.1229 23.1499 10.6151 21.9461 10.6151C19.6364 10.6151 17.7632 12.4883 17.7632 14.798C17.7632 15.1259 17.8003 15.445 17.872 15.7514C14.3956 15.577 11.3132 13.9118 9.25 11.3803C8.89001 11.998 8.6835 12.717 8.6835 13.4835C8.6835 14.9344 9.42251 16.2152 10.5443 16.9652C9.85893 16.9436 9.2135 16.7555 8.6498 16.4414C8.64949 16.4592 8.64949 16.477 8.64949 16.4944C8.64949 18.5212 10.092 20.2116 12.0052 20.5957C11.6545 20.6917 11.2842 20.7426 10.9033 20.7426C10.6332 20.7426 10.3715 20.7167 10.1163 20.668C10.6485 22.3295 12.1929 23.5389 14.0238 23.5729C12.5919 24.695 10.7885 25.3635 8.82824 25.3635C8.49133 25.3635 8.15755 25.3439 7.83093 25.3049C9.68112 26.4922 11.8804 27.1844 14.2425 27.1844C21.9364 27.1844 26.144 20.8106 26.144 15.2825C26.144 15.1013 26.14 14.9206 26.1319 14.7416C26.9498 14.152 27.6589 13.4155 28.2194 12.5766Z" fill="#F1F2F2"/>
</g>
<defs>
<clipPath id="clip0">
<rect width="35" height="35" fill="white"/>
</clipPath>
</defs>
</svg>
